<?xml version="1.0" standalone="no"?>
<!DOCTYPE svg PUBLIC "-//W3C//DTD SVG 20010904//EN"
 "http://www.w3.org/TR/2001/REC-SVG-20010904/DTD/svg10.dtd">
<svg version="1.0" xmlns="http://www.w3.org/2000/svg"
 width="288.000000pt" height="288.000000pt" viewBox="0 0 288.000000 288.000000"
 preserveAspectRatio="xMidYMid meet">
<metadata>
Created by potrace 1.11, written by Peter Selinger 2001-2013
</metadata>
<g transform="translate(0.000000,288.000000) scale(0.100000,-0.100000)"
fill="#000000" stroke="none">
<path d="M259 2033 c-75 -38 -92 -83 -103 -283 -9 -151 -22 -198 -58 -220 -17
-10 -45 -21 -62 -24 -31 -6 -33 -9 -35 -55 -2 -51 6 -64 50 -74 41 -10 78 -45
88 -85 6 -20 13 -84 16 -142 15 -247 35 -287 160 -315 28 -6 65 -10 83 -9 75
4 70 -1 68 61 l-1 56 -44 11 c-75 19 -81 34 -96 260 -3 44 -10 96 -15 116 -9
35 -73 110 -93 110 -5 0 11 19 36 43 50 47 62 85 72 227 7 109 16 173 26 192
5 10 28 23 52 29 54 16 67 33 67 86 l0 44 -81 -2 c-63 -1 -92 -7 -130 -26z"/>
<path d="M2420 2006 l0 -54 49 -17 c71 -23 77 -38 97 -265 10 -115 27 -157 78
-202 30 -27 31 -27 11 -42 -11 -9 -23 -16 -26 -16 -11 0 -47 -75 -52 -110 -4
-19 -9 -66 -12 -105 -11 -120 -26 -199 -41 -216 -8 -9 -34 -22 -57 -28 l-42
-12 -3 -61 -3 -60 72 7 c170 16 223 67 235 222 6 91 12 184 13 231 1 43 44 87
99 102 l42 11 0 55 c0 43 -4 56 -17 60 -41 12 -88 41 -104 64 -14 19 -19 53
-24 140 -9 177 -15 222 -34 259 -33 66 -90 90 -213 91 l-68 0 0 -54z"/>
<path d="M860 1979 c-90 -8 -116 -18 -164 -60 -79 -69 -112 -171 -85 -266 22
-82 90 -137 255 -208 149 -65 199 -99 209 -145 22 -98 -121 -158 -239 -101
-39 19 -47 30 -69 84 -24 59 -27 62 -63 67 -22 3 -52 3 -69 0 l-30 -5 -3 -143
-3 -142 77 0 c67 0 76 2 81 20 6 23 21 25 48 7 64 -42 220 -54 311 -24 131 45
211 180 184 312 -20 94 -106 170 -261 229 -168 64 -219 101 -219 158 1 61 49
98 130 98 82 0 119 -23 155 -96 l30 -61 58 3 c31 2 62 6 67 9 6 4 10 60 10
131 l0 124 -55 0 c-32 0 -65 -6 -78 -15 -20 -13 -26 -13 -50 0 -40 21 -140 31
-227 24z"/>
<path d="M1747 1965 c-124 -36 -215 -111 -267 -220 -36 -77 -48 -138 -48 -241
0 -197 78 -339 229 -413 74 -36 158 -49 287 -44 108 4 188 23 272 66 l65 32 3
112 3 111 -54 12 c-80 18 -89 14 -109 -55 -27 -87 -60 -118 -137 -130 -100
-15 -192 20 -241 92 -59 86 -75 289 -31 404 36 96 121 151 220 143 95 -8 145
-42 176 -120 14 -35 20 -41 43 -38 15 1 47 2 72 3 l45 1 3 145 3 145 -71 0
c-55 0 -74 -4 -89 -19 -18 -18 -20 -18 -59 -1 -91 41 -207 47 -315 15z"/>
</g>
</svg>
